<svg width="79" height="30" viewBox="0 0 79 30" fill="none" xmlns="http://www.w3.org/2000/svg">
<path d="M8.01441 22.6564C7.4027 22.6564 6.88758 22.4791 6.46905 22.1244C6.05051 21.7376 5.84124 21.2379 5.84124 20.6254V8.00406C5.84124 7.03691 5.35832 6.55333 4.39247 6.55333H2.02614C1.44663 6.55333 0.9637 6.37602 0.57736 6.0214C0.223215 5.63454 0.0461426 5.15097 0.0461426 4.57068C0.0461426 3.99039 0.223215 3.52293 0.57736 3.16831C0.9637 2.78145 1.44663 2.58802 2.02614 2.58802H13.9544C14.5661 2.58802 15.049 2.78145 15.4032 3.16831C15.7895 3.52293 15.9827 3.99039 15.9827 4.57068C15.9827 5.15097 15.7895 5.63454 15.4032 6.0214C15.049 6.37602 14.5661 6.55333 13.9544 6.55333H11.6363C10.6705 6.55333 10.1876 7.03691 10.1876 8.00406V20.6254C10.1876 21.2379 9.9783 21.7376 9.55977 22.1244C9.17343 22.4791 8.65831 22.6564 8.01441 22.6564Z" fill="#24252C"/>
<path d="M23.4303 22.6564C21.2732 22.6564 19.5186 21.9794 18.1664 20.6254C16.8464 19.2391 16.1864 17.4015 16.1864 15.1126C16.1864 12.8237 16.8303 11.0183 18.1181 9.69657C19.4381 8.34256 21.1605 7.66556 23.2854 7.66556C24.7986 7.66556 26.1186 8.19749 27.2454 9.26135C27.3742 8.87449 27.6156 8.55211 27.9698 8.2942C28.3239 8.0363 28.7425 7.90734 29.2254 7.90734C29.8693 7.90734 30.3844 8.10077 30.7707 8.48763C31.1893 8.84226 31.3985 9.27747 31.3985 9.79329V20.7704C31.3985 21.3185 31.1893 21.7698 30.7707 22.1244C30.3844 22.4791 29.8693 22.6564 29.2254 22.6564C28.1629 22.6564 27.5029 22.1889 27.2454 21.254C26.2151 22.1889 24.9434 22.6564 23.4303 22.6564ZM23.7683 18.7394C24.7986 18.7394 25.6195 18.4009 26.2312 17.7239C26.843 17.0147 27.1488 16.1442 27.1488 15.1126C27.1488 14.0487 26.843 13.1944 26.2312 12.5497C25.6195 11.9049 24.7986 11.5825 23.7683 11.5825C22.7703 11.5825 21.9493 11.9049 21.3054 12.5497C20.6937 13.1944 20.3879 14.0487 20.3879 15.1126C20.3879 16.1442 20.6937 17.0147 21.3054 17.7239C21.9493 18.4009 22.7703 18.7394 23.7683 18.7394Z" fill="#24252C"/>
<path d="M40.0486 22.6564C37.8593 22.6564 36.0564 22.205 34.6398 21.3024C34.35 21.1089 34.1408 20.8833 34.012 20.6254C33.8832 20.3352 33.8188 20.0612 33.8188 19.8033C33.8188 19.2552 33.9959 18.7555 34.35 18.3042C34.7364 17.8529 35.2032 17.6272 35.7505 17.6272C36.0081 17.6272 36.2656 17.6917 36.5232 17.8206C37.1027 18.0785 37.7627 18.3042 38.5032 18.4976C39.2437 18.6588 39.9198 18.7394 40.5315 18.7394C41.7227 18.7394 42.3183 18.4654 42.3183 17.9173C42.3183 17.595 42.1734 17.3209 41.8837 17.0953C41.5939 16.8374 40.9178 16.66 39.8554 16.5633C39.4369 16.5311 38.8895 16.4666 38.2134 16.3699C37.5695 16.2732 36.9256 16.0959 36.2817 15.838C35.6378 15.5478 35.0905 15.1287 34.6398 14.5807C34.2213 14.0326 34.012 13.2911 34.012 12.3562C34.012 10.9055 34.5593 9.76105 35.6539 8.92285C36.7486 8.08465 38.2134 7.66556 40.0486 7.66556C41.111 7.66556 42.109 7.77839 43.0427 8.00406C44.0085 8.22973 44.7329 8.56823 45.2159 9.01957C45.6666 9.43867 45.892 9.92224 45.892 10.4703C45.892 10.9539 45.7149 11.3891 45.3607 11.7759C45.0066 12.1628 44.5559 12.3562 44.0085 12.3562C43.7188 12.3562 43.4451 12.2918 43.1876 12.1628C42.8012 11.9049 42.3022 11.7115 41.6905 11.5825C41.111 11.4536 40.5154 11.3891 39.9037 11.3891C38.6803 11.3891 38.0686 11.647 38.0686 12.1628C38.0686 12.3885 38.1813 12.598 38.4066 12.7914C38.6642 12.9526 39.2276 13.0977 40.0969 13.2267C40.6442 13.2911 41.272 13.3879 41.9803 13.5168C42.6886 13.6135 43.3646 13.807 44.0085 14.0971C44.6846 14.355 45.2481 14.7902 45.6988 15.4028C46.1495 16.0153 46.3749 16.8535 46.3749 17.9173C46.3749 19.3681 45.7954 20.5286 44.6363 21.3991C43.4773 22.2373 41.9481 22.6564 40.0486 22.6564Z" fill="#24252C"/>
<path d="M51.206 22.6564C50.5943 22.6564 50.0792 22.4791 49.6607 22.1244C49.2421 21.7698 49.0329 21.3185 49.0329 20.7704V2.78145C49.0329 2.26564 49.226 1.83042 49.6124 1.4758C50.0309 1.08894 50.5621 0.895508 51.206 0.895508C51.8177 0.895508 52.3167 1.08894 52.7031 1.4758C53.0894 1.83042 53.2826 2.28176 53.2826 2.82981V11.1473C53.2826 11.5342 53.3953 11.7276 53.6206 11.7276C53.685 11.7276 53.8138 11.6631 54.007 11.5342L58.6914 8.05242C59.0777 7.79451 59.4962 7.66556 59.947 7.66556C60.4943 7.66556 60.945 7.85899 61.2992 8.24585C61.6533 8.63271 61.8304 9.08404 61.8304 9.59986C61.8304 10.3091 61.5084 10.8733 60.8645 11.2924L57.0494 13.807C56.7275 14.0326 56.5665 14.2744 56.5665 14.5323C56.5665 14.7902 56.6953 14.9998 56.9528 15.161L61.3474 19.1263C61.6372 19.3519 61.8304 19.6099 61.927 19.9C62.0235 20.1901 62.0718 20.4642 62.0718 20.7221C62.0718 21.2379 61.8626 21.6892 61.444 22.0761C61.0577 22.4629 60.5909 22.6564 60.0435 22.6564C59.4962 22.6564 59.0133 22.4468 58.5948 22.0277L53.8621 17.3854C53.7655 17.2887 53.6528 17.2403 53.5241 17.2403C53.3631 17.2403 53.2826 17.3693 53.2826 17.6272V20.7221C53.2826 21.2701 53.0733 21.7376 52.6548 22.1244C52.2685 22.4791 51.7855 22.6564 51.206 22.6564Z" fill="#24252C"/>
<path d="M63.0519 9.59983C63.0519 8.95506 63.2772 8.47149 63.728 8.1491C64.1787 7.82672 64.6938 7.66553 65.2733 7.66553C65.7241 7.66553 66.1104 7.79448 66.4324 8.05239C66.7865 8.27805 67.028 8.60044 67.1567 9.01954L70.1509 16.3215C70.3119 16.7406 70.5372 16.9502 70.827 16.9502C71.1167 16.9502 71.326 16.7406 71.4548 16.3215L74.0626 9.01954C74.2235 8.5682 74.4811 8.2297 74.8353 8.00403C75.2216 7.77836 75.624 7.66553 76.0426 7.66553C76.5899 7.66553 77.0889 7.84284 77.5396 8.19746C78.0226 8.55208 78.264 9.01954 78.264 9.59983C78.264 9.92221 78.1996 10.2285 78.0709 10.5186L70.5372 27.9273C70.3119 28.4109 70.0221 28.7494 69.668 28.9428C69.346 29.1685 69.008 29.2813 68.6538 29.2813C68.0743 29.2813 67.5431 29.0718 67.0602 28.6527C66.6094 28.2658 66.3841 27.7984 66.3841 27.2503C66.3841 26.9602 66.4485 26.7023 66.5772 26.4766L69.185 21.8343C68.6377 21.6731 68.2031 21.2701 67.8811 20.6253L63.1968 10.4703C63.1002 10.1801 63.0519 9.88997 63.0519 9.59983Z" fill="#F5F876"/>
</svg>
