<svg width="25" height="25" viewBox="0 0 25 25" fill="none" xmlns="http://www.w3.org/2000/svg">
<path d="M17.0855 9.18323L8.60027 17.6685C8.31035 17.9584 7.82952 17.9584 7.53961 17.6685C7.24969 17.3786 7.24969 16.8978 7.53961 16.6079L16.0249 8.12257C16.3148 7.83266 16.7956 7.83266 17.0855 8.12257C17.3755 8.41249 17.3755 8.89332 17.0855 9.18323Z" fill="#FC0C0C" fill-opacity="0.87"/>
<path d="M17.0855 17.6684C16.7956 17.9584 16.3148 17.9584 16.0249 17.6684L7.53961 9.18316C7.24969 8.89325 7.24969 8.41242 7.53961 8.1225C7.82952 7.83259 8.31035 7.83259 8.60027 8.1225L17.0855 16.6078C17.3755 16.8977 17.3755 17.3785 17.0855 17.6684Z" fill="#FC0C0C" fill-opacity="0.87"/>
</svg>
