<svg width="25" height="25" viewBox="0 0 25 25" fill="none" xmlns="http://www.w3.org/2000/svg">
<path d="M12.4497 22.6455C6.79971 22.6455 2.19971 18.0455 2.19971 12.3955C2.19971 6.74551 6.79971 2.14551 12.4497 2.14551C18.0997 2.14551 22.6997 6.74551 22.6997 12.3955C22.6997 18.0455 18.0997 22.6455 12.4497 22.6455ZM12.4497 3.64551C7.61971 3.64551 3.69971 7.57551 3.69971 12.3955C3.69971 17.2155 7.61971 21.1455 12.4497 21.1455C17.2797 21.1455 21.1997 17.2155 21.1997 12.3955C21.1997 7.57551 17.2797 3.64551 12.4497 3.64551Z" fill="#5F33E1"/>
<path d="M22.9496 23.6454C22.7596 23.6454 22.5696 23.5755 22.4196 23.4255L20.4196 21.4255C20.1296 21.1355 20.1296 20.6554 20.4196 20.3654C20.7096 20.0754 21.1896 20.0754 21.4796 20.3654L23.4796 22.3654C23.7696 22.6554 23.7696 23.1355 23.4796 23.4255C23.3296 23.5755 23.1396 23.6454 22.9496 23.6454Z" fill="#5F33E1"/>
</svg>
