<svg width="25" height="25" viewBox="0 0 25 25" fill="none" xmlns="http://www.w3.org/2000/svg">
<path d="M12.3826 22.8754C10.9726 22.8754 9.55259 22.3354 8.48259 21.2654L3.95259 16.7354C2.85259 15.6354 2.27259 14.1154 2.34259 12.5654L2.58259 7.56544C2.69259 5.17544 4.58259 3.28544 6.98259 3.16544L11.9826 2.92544C13.5326 2.86544 15.0526 3.43544 16.1526 4.53544L20.6826 9.06544C22.8326 11.2154 22.8326 14.7254 20.6826 16.8754L16.2926 21.2654C15.2126 22.3354 13.8026 22.8754 12.3826 22.8754ZM5.01259 15.6654L9.54259 20.1954C10.3026 20.9554 11.3126 21.3754 12.3826 21.3754C13.4526 21.3754 14.4626 20.9554 15.2226 20.1954L19.6126 15.8054C20.3726 15.0454 20.7926 14.0354 20.7926 12.9654C20.7926 11.8954 20.3726 10.8854 19.6126 10.1254L15.0826 5.59544C14.2826 4.79544 13.1726 4.36544 12.0526 4.42544L7.05259 4.66544C5.42259 4.73544 4.15259 6.00544 4.07259 7.62544L3.83259 12.6254C3.78259 13.7554 4.21259 14.8654 5.01259 15.6654Z" fill="#5F33E1"/>
<path d="M9.8125 13.6455C8.0225 13.6455 6.5625 12.1855 6.5625 10.3955C6.5625 8.60551 8.0225 7.14551 9.8125 7.14551C11.6025 7.14551 13.0625 8.60551 13.0625 10.3955C13.0625 12.1855 11.6025 13.6455 9.8125 13.6455ZM9.8125 8.64551C8.8525 8.64551 8.0625 9.43551 8.0625 10.3955C8.0625 11.3555 8.8525 12.1455 9.8125 12.1455C10.7725 12.1455 11.5625 11.3555 11.5625 10.3955C11.5625 9.43551 10.7725 8.64551 9.8125 8.64551Z" fill="#5F33E1"/>
</svg>
