<svg width="25" height="25" viewBox="0 0 25 25" fill="none" xmlns="http://www.w3.org/2000/svg">
<path d="M21.3127 7.62548C21.2927 7.62548 21.2627 7.62548 21.2327 7.62548C15.9427 7.09548 10.6627 6.89548 5.43266 7.42548L3.39266 7.62548C2.97266 7.66548 2.60266 7.36548 2.56266 6.94548C2.52266 6.52548 2.82266 6.16548 3.23266 6.12548L5.27266 5.92548C10.5927 5.38548 15.9827 5.59548 21.3827 6.12548C21.7927 6.16548 22.0927 6.53548 22.0527 6.94548C22.0227 7.33548 21.6927 7.62548 21.3127 7.62548Z" fill="#FF4949"/>
<path d="M8.81227 6.61551C8.77227 6.61551 8.73227 6.61551 8.68227 6.60551C8.28227 6.53551 8.00227 6.14551 8.07227 5.74551L8.29227 4.43551C8.45227 3.47551 8.67227 2.14551 11.0023 2.14551H13.6223C15.9623 2.14551 16.1823 3.52551 16.3323 4.44551L16.5523 5.74551C16.6223 6.15551 16.3423 6.54551 15.9423 6.60551C15.5323 6.67551 15.1423 6.39551 15.0823 5.99551L14.8623 4.69551C14.7223 3.82551 14.6923 3.65551 13.6323 3.65551H11.0123C9.95227 3.65551 9.93227 3.79551 9.78227 4.68551L9.55227 5.98551C9.49227 6.35551 9.17227 6.61551 8.81227 6.61551Z" fill="#FF4949"/>
<path d="M15.5224 23.6456H9.1024C5.6124 23.6456 5.4724 21.7156 5.3624 20.1556L4.7124 10.0856C4.6824 9.67558 5.0024 9.31558 5.4124 9.28558C5.8324 9.26558 6.1824 9.57558 6.2124 9.98558L6.8624 20.0556C6.9724 21.5756 7.0124 22.1456 9.1024 22.1456H15.5224C17.6224 22.1456 17.6624 21.5756 17.7624 20.0556L18.4124 9.98558C18.4424 9.57558 18.8024 9.26558 19.2124 9.28558C19.6224 9.31558 19.9424 9.66558 19.9124 10.0856L19.2624 20.1556C19.1524 21.7156 19.0124 23.6456 15.5224 23.6456Z" fill="#FF4949"/>
<path d="M13.9726 18.1455H10.6426C10.2326 18.1455 9.89258 17.8055 9.89258 17.3955C9.89258 16.9855 10.2326 16.6455 10.6426 16.6455H13.9726C14.3826 16.6455 14.7226 16.9855 14.7226 17.3955C14.7226 17.8055 14.3826 18.1455 13.9726 18.1455Z" fill="#FF4949"/>
<path d="M14.8125 14.1455H9.8125C9.4025 14.1455 9.0625 13.8055 9.0625 13.3955C9.0625 12.9855 9.4025 12.6455 9.8125 12.6455H14.8125C15.2225 12.6455 15.5625 12.9855 15.5625 13.3955C15.5625 13.8055 15.2225 14.1455 14.8125 14.1455Z" fill="#FF4949"/>
</svg>
