<svg width="25" height="25" viewBox="0 0 25 25" fill="none" xmlns="http://www.w3.org/2000/svg">
<path d="M21.8024 11.0856L20.8024 10.5356L11.8024 5.53559H11.6924C11.6311 5.50966 11.5675 5.48958 11.5024 5.47559H11.3124H11.1324C11.0641 5.48959 10.9971 5.50967 10.9324 5.53559H10.8224L1.82238 10.5356C1.66848 10.6228 1.54047 10.7493 1.45141 10.9021C1.36235 11.055 1.31543 11.2287 1.31543 11.4056C1.31543 11.5825 1.36235 11.7562 1.45141 11.909C1.54047 12.0619 1.66848 12.1884 1.82238 12.2756L4.31238 13.6556V18.3956C4.31238 19.1912 4.62845 19.9543 5.19106 20.5169C5.75367 21.0795 6.51673 21.3956 7.31238 21.3956H15.3124C16.108 21.3956 16.8711 21.0795 17.4337 20.5169C17.9963 19.9543 18.3124 19.1912 18.3124 18.3956V13.6556L20.3124 12.5356V15.3956C20.3124 15.6608 20.4177 15.9152 20.6053 16.1027C20.7928 16.2902 21.0472 16.3956 21.3124 16.3956C21.5776 16.3956 21.8319 16.2902 22.0195 16.1027C22.207 15.9152 22.3124 15.6608 22.3124 15.3956V11.9556C22.3121 11.7784 22.2647 11.6045 22.1751 11.4516C22.0855 11.2987 21.9568 11.1724 21.8024 11.0856ZM16.3124 18.3956C16.3124 18.6608 16.207 18.9152 16.0195 19.1027C15.8319 19.2902 15.5776 19.3956 15.3124 19.3956H7.31238C7.04716 19.3956 6.79281 19.2902 6.60527 19.1027C6.41774 18.9152 6.31238 18.6608 6.31238 18.3956V14.7656L10.8224 17.2656L10.9724 17.3256H11.0624C11.1454 17.336 11.2294 17.336 11.3124 17.3256C11.3954 17.336 11.4794 17.336 11.5624 17.3256H11.6524C11.7055 17.3144 11.7562 17.2941 11.8024 17.2656L16.3124 14.7656V18.3956ZM11.3124 15.2556L4.37238 11.3956L11.3124 7.53559L18.2524 11.3956L11.3124 15.2556Z" fill="#0055A3"/>
</svg>
